<?xml version="1.0"?><svg id="Layer_2" fill="#ffffff" xmlns="http://www.w3.org/2000/svg" viewBox="0 0 49.86 63.47"><defs></defs><g id="Layer_7"><g><path class="cls-1" d="m6.5,55.05c.12-.78.26-1.51.34-2.24.24-2.19.91-4.26,1.76-6.28.6-1.43,1.24-2.84,1.92-4.23,1.13-2.31,3.01-3.89,5.21-5.11,3.03-1.68,6.07-3.31,9.12-4.96,1.08-.59,2.06-1.3,2.88-2.23,1.3-1.47,1.79-3.17,1.49-5.11-.75-4.83-.29-9.53,1.51-14.09.59-1.48,1.1-2.99,1.75-4.44.92-2.07,2.34-3.81,3.97-5.37.35-.34.81-.59,1.26-.82.6-.32,1.09-.2,1.35.44.32.78.49,1.61.72,2.42.04.13.05.28.08.45.4-.25.75-.5,1.13-.7.8-.43,1.46-.25,1.8.59.24.58.37,1.24.42,1.87.28,3.62-.77,6.95-2.25,10.18-.18.4-.36.81-.56,1.27.53.25,1.01.48,1.5.72,2.5,1.19,4.76,2.73,6.68,4.72,1.25,1.29,1.45,2.1,1.18,3.87-.04.25-.21.51-.38.71-2.39,2.78-5.03,5.24-8.4,6.81-.28.13-.37.28-.35.58.1,1.39.18,2.78.27,4.17.14,2.16-.34,4.15-1.49,5.99-1.31,2.09-2.6,4.2-3.83,6.34-1.03,1.78-1.64,3.72-1.47,5.8.11,1.44.35,2.88.54,4.31.07.53.17,1.05.22,1.58.05.56-.13.83-.67,1-.3.09-.62.17-.92.17-3.39-.03-6.78-.06-10.17-.12-2.43-.04-4.85-.13-7.28-.22-1.58-.06-3.16-.17-4.74-.21-.93-.03-1.87.03-2.8.05-.52.01-.96-.11-1.22-.63-.05-.1-.25-.15-.39-.16-1.67-.14-3.22-.62-4.51-1.72C.76,59.27-.05,57.77,0,55.88c0-.23,0-.46,0-.69.01-1.46.93-2.22,2.37-1.94,1.38.27,2.67.78,3.82,1.61.08.06.16.11.3.2ZM41.65,4.03c-.59.64-1.18,1.21-1.67,1.86-.26.35-.42.82-.51,1.26-.17.81-.2,1.65-.38,2.47-.4,1.85-.81,3.7-1.29,5.53-.21.83-.29.81.53,1.06.08.03.17.05.25.06.61.08.76,0,.96-.58.68-1.95,1.33-3.91,2.01-5.87.47-1.35.67-2.73.57-4.15-.04-.55-.05-1.12-.48-1.64Zm-3.59-2.42c-.75.82-1.51,1.55-2.14,2.37-.34.45-.53,1.05-.65,1.61-.21,1.04-.41,2.09-.48,3.15-.14,1.89-.86,7.41.19,7.74.1.03.21.07.32.08.79.1.98,0,1.23-.74.87-2.5.54-4.31,1.41-6.81.61-1.73.86-3.49.72-5.31-.05-.7-.06-1.44-.62-2.1Z"></path><path d="m36.21,21.04c.31-.04.62-.14.93-.13.96.05,1.85.37,2.69.81.32.16.64.32.95.48.28.14.4.38.26.63-.07.13-.38.24-.51.19-1.29-.48-2.58-1-3.86-1.51-.17-.07-.31-.19-.46-.29,0-.06,0-.12,0-.18Z"></path></g></g></svg>